<mxfile host="app.diagrams.net" modified="2024-01-16T22:56:05.899Z" agent="Mozilla/5.0 (X11; Linux x86_64; rv:121.0) Gecko/20100101 Firefox/121.0" etag="75_84z1vNkh41yxke-w4" version="22.1.19" type="github">
  <diagram name="Page-1" id="AIV4Z9JlLWsqxPOkt2so">
    <mxGraphModel dx="989" dy="526" grid="1" gridSize="10" guides="1" tooltips="1" connect="1" arrows="1" fold="1" page="1" pageScale="1" pageWidth="850" pageHeight="1100" math="0" shadow="0">
      <root>
        <mxCell id="0" />
        <mxCell id="1" parent="0" />
        <mxCell id="2xv2zQfgtScPDcrgXwvS-15" value="" style="rounded=1;whiteSpace=wrap;html=1;fillColor=none;arcSize=4;dashed=1;" parent="1" vertex="1">
          <mxGeometry x="570" y="80" width="610" height="410" as="geometry" />
        </mxCell>
        <mxCell id="2xv2zQfgtScPDcrgXwvS-37" style="edgeStyle=orthogonalEdgeStyle;rounded=0;orthogonalLoop=1;jettySize=auto;html=1;exitX=0.5;exitY=1;exitDx=0;exitDy=0;entryX=0.5;entryY=0;entryDx=0;entryDy=0;" parent="1" source="2xv2zQfgtScPDcrgXwvS-7" target="2xv2zQfgtScPDcrgXwvS-26" edge="1">
          <mxGeometry relative="1" as="geometry" />
        </mxCell>
        <mxCell id="2xv2zQfgtScPDcrgXwvS-7" value="&lt;div&gt;Actuator control&amp;nbsp;&lt;/div&gt;&lt;div&gt;device&lt;/div&gt;" style="rounded=0;whiteSpace=wrap;html=1;" parent="1" vertex="1">
          <mxGeometry x="780" y="120" width="130" height="60" as="geometry" />
        </mxCell>
        <mxCell id="2xv2zQfgtScPDcrgXwvS-12" value="Motor" style="ellipse;whiteSpace=wrap;html=1;aspect=fixed;" parent="1" vertex="1">
          <mxGeometry x="805" y="390" width="80" height="80" as="geometry" />
        </mxCell>
        <mxCell id="2xv2zQfgtScPDcrgXwvS-17" value="Executive control device" style="text;html=1;strokeColor=none;fillColor=none;align=center;verticalAlign=middle;whiteSpace=wrap;rounded=0;" parent="1" vertex="1">
          <mxGeometry x="560" y="90" width="200" height="30" as="geometry" />
        </mxCell>
        <mxCell id="2xv2zQfgtScPDcrgXwvS-20" style="edgeStyle=orthogonalEdgeStyle;rounded=0;orthogonalLoop=1;jettySize=auto;html=1;exitX=1;exitY=0.5;exitDx=0;exitDy=0;entryX=0;entryY=0.5;entryDx=0;entryDy=0;fillColor=#f8cecc;strokeColor=#b85450;" parent="1" source="2xv2zQfgtScPDcrgXwvS-19" target="2xv2zQfgtScPDcrgXwvS-21" edge="1">
          <mxGeometry relative="1" as="geometry">
            <Array as="points">
              <mxPoint x="610" y="310" />
              <mxPoint x="610" y="220" />
            </Array>
          </mxGeometry>
        </mxCell>
        <mxCell id="2xv2zQfgtScPDcrgXwvS-41" style="edgeStyle=orthogonalEdgeStyle;rounded=0;orthogonalLoop=1;jettySize=auto;html=1;exitX=1;exitY=0.5;exitDx=0;exitDy=0;entryX=0;entryY=0.5;entryDx=0;entryDy=0;fillColor=#f8cecc;strokeColor=#b85450;" parent="1" source="2xv2zQfgtScPDcrgXwvS-19" target="2xv2zQfgtScPDcrgXwvS-27" edge="1">
          <mxGeometry relative="1" as="geometry" />
        </mxCell>
        <mxCell id="2xv2zQfgtScPDcrgXwvS-19" value="Power supply source" style="rounded=0;whiteSpace=wrap;html=1;" parent="1" vertex="1">
          <mxGeometry x="440" y="280" width="100" height="60" as="geometry" />
        </mxCell>
        <mxCell id="2xv2zQfgtScPDcrgXwvS-21" value="Power converter" style="rounded=0;whiteSpace=wrap;html=1;" parent="1" vertex="1">
          <mxGeometry x="630" y="200" width="100" height="40" as="geometry" />
        </mxCell>
        <mxCell id="2xv2zQfgtScPDcrgXwvS-51" style="edgeStyle=orthogonalEdgeStyle;rounded=0;orthogonalLoop=1;jettySize=auto;html=1;exitX=0.5;exitY=0;exitDx=0;exitDy=0;entryX=1;entryY=0.25;entryDx=0;entryDy=0;" parent="1" source="2xv2zQfgtScPDcrgXwvS-23" target="2xv2zQfgtScPDcrgXwvS-7" edge="1">
          <mxGeometry relative="1" as="geometry" />
        </mxCell>
        <mxCell id="2xv2zQfgtScPDcrgXwvS-23" value="Position and velocity values" style="rounded=0;whiteSpace=wrap;html=1;" parent="1" vertex="1">
          <mxGeometry x="1030" y="200" width="120" height="60" as="geometry" />
        </mxCell>
        <mxCell id="2xv2zQfgtScPDcrgXwvS-28" style="edgeStyle=orthogonalEdgeStyle;rounded=0;orthogonalLoop=1;jettySize=auto;html=1;exitX=0.5;exitY=1;exitDx=0;exitDy=0;" parent="1" source="2xv2zQfgtScPDcrgXwvS-26" target="2xv2zQfgtScPDcrgXwvS-27" edge="1">
          <mxGeometry relative="1" as="geometry" />
        </mxCell>
        <mxCell id="2xv2zQfgtScPDcrgXwvS-26" value="Control drivers" style="rounded=0;whiteSpace=wrap;html=1;" parent="1" vertex="1">
          <mxGeometry x="800" y="210" width="90" height="40" as="geometry" />
        </mxCell>
        <mxCell id="2xv2zQfgtScPDcrgXwvS-50" style="edgeStyle=orthogonalEdgeStyle;rounded=0;orthogonalLoop=1;jettySize=auto;html=1;exitX=1;exitY=0.5;exitDx=0;exitDy=0;entryX=0.5;entryY=1;entryDx=0;entryDy=0;" parent="1" source="2xv2zQfgtScPDcrgXwvS-27" target="2xv2zQfgtScPDcrgXwvS-48" edge="1">
          <mxGeometry relative="1" as="geometry" />
        </mxCell>
        <mxCell id="2xv2zQfgtScPDcrgXwvS-27" value="Output power transistor" style="rounded=0;whiteSpace=wrap;html=1;" parent="1" vertex="1">
          <mxGeometry x="785" y="280" width="120" height="60" as="geometry" />
        </mxCell>
        <mxCell id="2xv2zQfgtScPDcrgXwvS-35" style="edgeStyle=orthogonalEdgeStyle;rounded=0;orthogonalLoop=1;jettySize=auto;html=1;exitX=1;exitY=0.5;exitDx=0;exitDy=0;entryX=0;entryY=0.5;entryDx=0;entryDy=0;startArrow=classic;startFill=1;" parent="1" source="2xv2zQfgtScPDcrgXwvS-32" target="2xv2zQfgtScPDcrgXwvS-7" edge="1">
          <mxGeometry relative="1" as="geometry" />
        </mxCell>
        <mxCell id="2xv2zQfgtScPDcrgXwvS-32" value="Control protocol" style="rounded=0;whiteSpace=wrap;html=1;" parent="1" vertex="1">
          <mxGeometry x="630" y="135" width="100" height="30" as="geometry" />
        </mxCell>
        <mxCell id="2xv2zQfgtScPDcrgXwvS-36" style="edgeStyle=orthogonalEdgeStyle;rounded=0;orthogonalLoop=1;jettySize=auto;html=1;exitX=0.5;exitY=1;exitDx=0;exitDy=0;entryX=0.5;entryY=0;entryDx=0;entryDy=0;" parent="1" source="2xv2zQfgtScPDcrgXwvS-27" target="2xv2zQfgtScPDcrgXwvS-12" edge="1">
          <mxGeometry relative="1" as="geometry" />
        </mxCell>
        <mxCell id="2xv2zQfgtScPDcrgXwvS-39" style="edgeStyle=orthogonalEdgeStyle;rounded=0;orthogonalLoop=1;jettySize=auto;html=1;exitX=1;exitY=0.5;exitDx=0;exitDy=0;entryX=0.5;entryY=1;entryDx=0;entryDy=0;" parent="1" source="2xv2zQfgtScPDcrgXwvS-12" target="2xv2zQfgtScPDcrgXwvS-23" edge="1">
          <mxGeometry relative="1" as="geometry" />
        </mxCell>
        <mxCell id="2xv2zQfgtScPDcrgXwvS-52" style="edgeStyle=orthogonalEdgeStyle;rounded=0;orthogonalLoop=1;jettySize=auto;html=1;exitX=0.5;exitY=0;exitDx=0;exitDy=0;entryX=1;entryY=0.75;entryDx=0;entryDy=0;" parent="1" source="2xv2zQfgtScPDcrgXwvS-48" target="2xv2zQfgtScPDcrgXwvS-7" edge="1">
          <mxGeometry relative="1" as="geometry" />
        </mxCell>
        <mxCell id="2xv2zQfgtScPDcrgXwvS-48" value="Torque values" style="rounded=0;whiteSpace=wrap;html=1;" parent="1" vertex="1">
          <mxGeometry x="940" y="200" width="80" height="60" as="geometry" />
        </mxCell>
        <mxCell id="EUmHAaPA3s3iDB8R-cM2-2" style="edgeStyle=orthogonalEdgeStyle;rounded=0;orthogonalLoop=1;jettySize=auto;html=1;exitX=1;exitY=0.5;exitDx=0;exitDy=0;entryX=0;entryY=0.5;entryDx=0;entryDy=0;startArrow=classic;startFill=1;" edge="1" parent="1" source="EUmHAaPA3s3iDB8R-cM2-1" target="2xv2zQfgtScPDcrgXwvS-32">
          <mxGeometry relative="1" as="geometry" />
        </mxCell>
        <mxCell id="EUmHAaPA3s3iDB8R-cM2-1" value="Bus protocol" style="rounded=0;whiteSpace=wrap;html=1;" vertex="1" parent="1">
          <mxGeometry x="440" y="135" width="100" height="30" as="geometry" />
        </mxCell>
      </root>
    </mxGraphModel>
  </diagram>
</mxfile>
